<?xml version="1.0" encoding="utf-8"?>
<!-- Generator: Adobe Illustrator 22.1.0, SVG Export Plug-In . SVG Version: 6.00 Build 0)  -->
<svg version="1.1" id="LINE_LOGO" xmlns="http://www.w3.org/2000/svg" xmlns:xlink="http://www.w3.org/1999/xlink" x="0px" y="0px"
	 viewBox="0 0 120 120" style="enable-background:new 0 0 120 120;" xml:space="preserve">
<style type="text/css">
	.st0{fill:#FFFFFF;}
</style>
<g>
	<path d="M94,120H26c-14.4,0-26-11.6-26-26V26C0,11.6,11.6,0,26,0h68c14.4,0,26,11.6,26,26v68C120,108.4,108.4,120,94,120z"/>
	<path class="st0" d="M60,21c-21.5,0-39,17.5-39,39s17.5,39,39,39c4.1,0,8.2-0.6,12.1-1.9l2.3-0.8c0.8-0.3,1.3-1.2,1-2l-2.2-6.9
		c-0.3-0.8-1.1-1.3-2-1l-2.3,0.8C66,88.2,63,88.6,60,88.6c-15.8,0-28.6-12.9-28.6-28.6S44.2,31.4,60,31.4
		c15.8,0,28.6,12.9,28.6,28.6c0,3.2-0.6,6.6-1.8,10c-0.9,2.5-2.9,4.5-4.5,4.5c-2.2,0-4-1.8-4-4V43c0-0.9-0.7-1.6-1.6-1.6h-7.2
		c-0.8,0-1.5,0.7-1.6,1.5l0,0.6l-0.5-0.3c-2.8-1.5-5.9-2.3-9-2.3c-10.5,0-19,8.5-19,19s8.5,19,19,19c3.6,0,7.1-1,10.2-3l0.4-0.2
		l0.2,0.4c2.3,5.3,7.4,8.7,13.2,8.7c6.1,0,11.9-4.6,14.3-11.5C98.2,68.9,99,64.4,99,60C99,38.5,81.5,21,60,21z M67.8,60
		c0,5.2-4.2,9.4-9.4,9.4S49,65.2,49,60s4.2-9.4,9.4-9.4S67.8,54.8,67.8,60z"/>
</g>
</svg>
