<?xml version="1.0" encoding="utf-8"?>
<!-- Generator: Adobe Illustrator 22.1.0, SVG Export Plug-In . SVG Version: 6.00 Build 0)  -->
<svg version="1.1" id="logoC" xmlns="http://www.w3.org/2000/svg" xmlns:xlink="http://www.w3.org/1999/xlink" x="0px" y="0px"
	 viewBox="0 0 542 140.5" style="enable-background:new 0 0 542 140.5;" xml:space="preserve">
<g>
	<polygon points="151.3,37.2 176.6,37.2 176.6,59.1 186.1,59.1 186.1,3.9 176.6,3.9 176.6,28.7 151.3,28.7 151.3,3.9 141.8,3.9 
		141.8,59.1 151.3,59.1 	"/>
	<polygon points="45.5,85.3 33.9,85.3 9.5,115.5 9.5,85.3 0,85.3 0,140.5 9.5,140.5 9.5,128.4 20,115.8 35.4,140.5 46.5,140.5 
		26.3,108.6 	"/>
	<path d="M87.5,85.3l-20.4,55.2h10.1l4.1-12.1h22.5l4.2,12.1h10.1L97.8,85.3H87.5z M84.1,120.3l8.6-24.5l8.5,24.5H84.1z"/>
	<path d="M350.3,85.3l-20.4,55.2H340l4.1-12.1h22.5l4.2,12.1h10.1l-20.3-55.2H350.3z M346.8,120.3l8.6-24.5l8.5,24.5H346.8z"/>
	<path d="M508,85.3l-20.4,55.2h10.1l4.1-12.1h22.5l4.2,12.1h10.1l-20.3-55.2H508z M504.5,120.3l8.6-24.5l8.5,24.5H504.5z"/>
	<polygon points="187.9,85.3 171.7,119.7 155.2,85.3 144,85.3 144,140.5 153.5,140.5 153.5,102.4 168.2,132 175.2,132 189.6,102.4 
		189.6,140.5 199.1,140.5 199.1,85.3 	"/>
	<polygon points="450.6,85.3 434.4,119.7 417.9,85.3 406.7,85.3 406.7,140.5 416.2,140.5 416.2,102.4 430.9,132 437.9,132 
		452.3,102.4 452.3,140.5 461.8,140.5 461.8,85.3 	"/>
	<rect x="230.4" y="85.3" width="9.5" height="55.2"/>
	<path d="M89.6,59.3c15.5,0,28-12.6,28-28c0-15.5-12.6-28-28-28c-15.5,0-28,12.6-28,28C61.5,46.8,74.1,59.3,89.6,59.3z M89.6,12.7
		c10.2,0,18.6,8.3,18.6,18.6s-8.3,18.6-18.6,18.6S71,41.5,71,31.3S79.3,12.7,89.6,12.7z"/>
	<polygon points="288.4,112.1 276.3,85.3 266.8,85.3 283.6,122.7 283.7,122.7 283.7,140.5 293.1,140.5 293.1,122.7 310,85.3 
		300.4,85.3 	"/>
	<polygon points="16.9,41.2 16.9,59.1 26.4,59.1 26.4,41.2 43.2,3.9 33.7,3.9 21.6,30.6 9.5,3.9 0,3.9 16.8,41.2 	"/>
	<path d="M541,58.5c0,1.1,0.4,0.7,0.5,0.9C541.4,57.5,540.9,58.5,541,58.5z"/>
	<polygon points="540.1,40 540.2,40.3 539.8,37.6 	"/>
	<path d="M540.1,22.7c-0.7,1.6,0.1,6.3-0.1,9.3l-0.2,0.5l0.6,1.4C540.3,30.2,539.9,25.3,540.1,22.7z"/>
	<path d="M541.6,13.5c-0.3,0.6-0.2-2-0.1,2.1c0-0.2,0-0.3,0.1-0.4C541.6,14.9,541.6,14.4,541.6,13.5z"/>
	<path d="M541.6,15.2C541.6,17.1,541.8,14,541.6,15.2L541.6,15.2z"/>
	<path d="M541.4,6.2l0.1,1l0,0.5l0,0.3l0.1,1.2c0.1-0.3,0.1-0.9,0.2-1.4c0-0.2,0-0.4,0-0.5c0-0.2,0-0.3,0-0.4c0-0.2,0-0.2,0.1,0.2
		C541.9,2.5,541.7,3.7,541.4,6.2z"/>
	<path d="M540.9,2.6l0.1,1.9C541.1,4.2,541.1,3.6,540.9,2.6z"/>
	<path d="M541.1,6.5c-0.1-0.2-0.1,0-0.1,0.4c0,0.2,0.1,0.5,0.1,0.8c0,0.2,0.1,0.4,0.1,0.7l-0.1-0.7l-0.1-1.1L541,4.6
		C540.9,5.2,540.7,5.3,541.1,6.5z"/>
	<path d="M541.1,9.9c-0.2,1.3-0.3,3.1-0.5,0.7C540.7,15.2,541.2,14.5,541.1,9.9z"/>
	<path d="M539.3,21.8l-0.2,1.8l0.2,1.6C539.2,24.4,539.6,21.7,539.3,21.8z"/>
	<path d="M526.6,0.6c-0.1,0.2,0.8,0.4,1,0.6l1.8-0.2C528.5,1,526.7,0.9,526.6,0.6z"/>
	<path d="M527.6,1.2L525,1.5C527.3,1.5,527.8,1.4,527.6,1.2z"/>
	<path d="M540.4,5.4l-0.2-3.2l-0.9,0.1l0.8,0l0,0.4l0.3,2.9c0.1,1,0.2,2.3,0.3,2.8C540.6,7.9,540.5,6.5,540.4,5.4z"/>
	<polygon points="518,0.3 515.3,0.8 516.5,0.6 	"/>
	<path d="M509.8,0.7c1.1-0.3-1.5-0.5-0.3-0.7c-1.8,0.1-3.4,0.3-4.8,0.5C506.2,0.4,507.7,0.4,509.8,0.7z"/>
	<path d="M502.3,0.9c0.7-0.1,1.5-0.2,2.4-0.3C503.9,0.6,503.1,0.7,502.3,0.9z"/>
	<path d="M520.4,1.4c-0.2-0.1-0.6-0.3-2.1-0.4l1,0.4C519.7,1.4,520.1,1.4,520.4,1.4z"/>
	<path d="M519.4,1.4L519.4,1.4c-1.2,0-2,0-2.3,0C517.4,1.4,518.1,1.4,519.4,1.4z"/>
	<path d="M520.7,1.4c-0.1,0-0.2,0-0.3,0C520.5,1.5,520.6,1.5,520.7,1.4z"/>
	<path d="M531.9,1.9c-1.6,0.2-4.8,0.5-1.7,0.9C531.4,2.5,529.6,2.3,531.9,1.9z"/>
	<path d="M525,1.7L522,2l2.8,0.1C524.8,1.9,524.3,1.8,525,1.7z"/>
	<polygon points="522,2 521,1.9 520.6,2.1 	"/>
	<path d="M507.1,1.3c-1.2,0.2-2.5,0.2-4,0.2c1.6,0.1,3.3,0.1,4.9,0.1C508.2,1.5,508.9,1.2,507.1,1.3z"/>
	<path d="M513.1,1.4c-0.1,0-0.2,0-0.3,0C513,1.4,513.1,1.4,513.1,1.4z"/>
	<path d="M488.3,1.5c0.1,0,0.2,0.1,0.2,0.1c0,0,0,0,0.1-0.1L488.3,1.5z"/>
	<path d="M508.2,1.7c1.2,0.1,1.9,0,2.6-0.2c-0.9,0-1.9,0.1-2.9,0.1C507.8,1.7,507.8,1.7,508.2,1.7z"/>
	<path d="M498.2,1.1c0.6,0.1,1.3,0.2,2.1,0.2C499.7,1.2,498.4,0.9,498.2,1.1z"/>
	<path d="M512.4,1.3c0.1,0,0.1,0,0.2,0C512.2,1.2,512.3,1.2,512.4,1.3z"/>
	<path d="M512.4,1.3c-0.6,0.1-1.1,0.2-1.6,0.3c0.7,0,1.4-0.1,2-0.1C512.7,1.4,512.5,1.3,512.4,1.3z"/>
	<path d="M493.8,1.6l1.1,0c-1.3-0.1-2.2-0.2-4-0.5c-1.9,0.2-2.3,0.3-2.4,0.5l5.6,0.1L493.8,1.6z"/>
	<path d="M500.1,1.6c-0.9,0.4-3.6,0.6-2,1.1c3.4,0,2.4-0.4,4.4-0.5C497.1,2.2,504.1,1.8,500.1,1.6c1.1,0,2.1,0,3-0.1
		c-1-0.1-1.9-0.1-2.8-0.2c0,0,0.1,0,0.1,0l0,0l0,0c0.2,0.1,0.3,0.1,0,0.1c0,0-0.1,0-0.1,0C500.3,1.4,500.2,1.5,500.1,1.6
		c-1.6-0.1-0.2-0.1,0.2-0.2c0,0,0.1,0,0.1-0.1l0,0L495,1.6C496.1,1.6,497.6,1.6,500.1,1.6z"/>
	<path d="M527.4,3.7c-0.2,0-0.2-0.1-0.2-0.1C526.8,3.7,526.7,3.7,527.4,3.7z"/>
	<path d="M527.5,3.1l-0.4,0.1c-1.7-0.1-3.8-0.5-4.4-0.6c0.6,0.3,1.2,0.6,2.5,0.9c0.4-0.1,0.7-0.2,2-0.2c1.1,0.1,0,0.2,0.1,0.3
		C528,3.5,529.9,3.3,527.5,3.1z"/>
	<path d="M522.6,2.5c-0.1,0-0.1-0.1-0.2-0.1C522.4,2.4,522.5,2.5,522.6,2.5z"/>
	<path d="M512.5,2.6l-4.5,0.2l2.3,0.4L510.1,3C512.7,3.1,512.1,2.8,512.5,2.6z"/>
	<polygon points="488.4,0.8 485.8,1.5 487.8,1.3 	"/>
	<polygon points="482.1,0.9 480.6,1.2 481.9,1.3 	"/>
	<path d="M337.6,1.4c-1.9-0.4-4.1-0.9-3.9-0.5l0.6,0.4C335.7,1.2,336.7,1.3,337.6,1.4z"/>
	<path d="M421.7,1.5c-1.7-0.2-3-0.2-4.2-0.3C419.6,1.5,421.2,1.8,421.7,1.5z"/>
	<path d="M220.2,61.6c0.8-0.1,1.2-0.2,1.1-0.3C220.5,61.4,220,61.5,220.2,61.6z"/>
	<path d="M417.6,1.2c-1.5-0.2-3.2-0.3-4.8,0c0.3,0,0.6,0.1,0.9,0.1C414.9,1.3,416.1,1.2,417.6,1.2z"/>
	<path d="M522.4,61.2c-0.5,0-1.4,0-2.3,0C520.6,61.3,521.3,61.3,522.4,61.2z"/>
	<path d="M458.3,1.1C459.5,1.1,458.5,1.1,458.3,1.1L458.3,1.1z"/>
	<path d="M463.8,3.1c0.1-0.1,0.3-0.2,0.5-0.2C464.1,2.9,463.9,3,463.8,3.1z"/>
	<path d="M460.1,1.3c-0.5-0.1-1-0.1-1.6-0.1C458.8,1.2,459.3,1.3,460.1,1.3z"/>
	<path d="M459.9,1.1c0.4,0,0.8,0,1.1,0C461.1,1.1,461,1.1,459.9,1.1z"/>
	<path d="M458.3,1.1c-0.4,0-0.9,0-1.7,0c0.7,0,1.4,0,2,0C458.3,1.2,458.2,1.1,458.3,1.1z"/>
	<path d="M470.9,1.2c-0.1-0.1-0.4-0.2,0-0.3L468.5,1C469.8,1,470.2,1.1,470.9,1.2z"/>
	<path d="M470.9,0.9l0.3,0C471,0.9,471,0.9,470.9,0.9z"/>
	<path d="M495.8,3.8l-0.1-0.2c-1.5,0-2.5,0.1-1.7,0.2h-3.9c2.4-0.3,0.7-1.6-1.6-2.3c-0.1,0.2-0.1,0.3-2.9,0.6c1,0.2,6.2,0.5,3.8,0.9
		c-3.7,0.2-3-0.1-4.8-0.3c1.4,0.4-3.4,0.7-3.9,1.2h-22.4c0.1-0.1,0.1-0.1-0.2-0.2l-2.1,0.1c-1.9-0.4,3.9-0.6,1.3-0.8
		c2.8-0.3,5.9-0.8,9.8-0.5L468,3c-0.1-0.2-2.6-0.4-3.7-0.2c1.6-0.3,6,0.8,7.8,0l-2.7-0.4c2.8-0.3,6.3-1,9.7-0.8
		c-1.6-0.6-0.8,0.1-3.3-0.6c2.1,0.9-8.9,0-5.4,0.9c-2.5-0.8-4.4-0.3-7.7-1c0.1,0.2,1.2,0.4-1.7,0.3c-0.1,0.1-0.4,0.1-0.6,0.2
		c-0.1,0-0.1,0-0.2,0c0.1,0,0.1,0,0.2,0c-0.1,0-0.1,0,0.1,0c0.7,0.1,1.3,0.2,1.5,0.3c-1.4,0.5-6.1,0.4-7.7,0.7
		c-1.7-0.1,0.7-0.2-0.2-0.4l-2.3,0.4c-0.2-0.4-4.6-0.7-0.5-1l-3.7,0c-2.2-0.3-5.1-0.4-7-0.2c-1.7-0.1-4.4,0.5-2.9,0.1l-5.8,0.3
		l-0.1-0.1c-5.7-0.1-11.7,0.7-18.2-0.1c-1.9,0.1-3.9,0.3-7.1,0.1l-0.6-0.4c-2.5,0.1-7.4-0.4-8.4,0c-2.6-1-11.9-0.2-16.2-0.4
		l-0.2,0.5c-3,0-5.8,0.1-9.5,0.3l0.2,0.4c-3.2,0.4-8.2-0.3-13.2-0.3c0.3-0.2,1.6-0.1,2.5,0c-6-1-12.7,0.7-18.1,0
		c-1.4,0.2-2.3,0.1-3.3,0c0.1,0,0.2,0,0.3,0c-0.1,0-0.3,0-0.6,0c-0.6-0.1-1.2-0.2-1.9-0.2c0.6,0.1,1.1,0.2,1.6,0.2
		c-1,0-2.6,0.1-4.2,0.2l-0.7-0.5c-0.1,0-0.2,0-0.4,0c-1.5-0.2-1.2,0.2-0.4,0.6c-0.8,0.1-1.5,0.2-2.1,0.3c-1.2-0.8-4.1,0.3-5.8-0.6
		c-1,0.4-6.8,0.3-8.4,1c-1.7-0.1-3.4-0.2-5,0L311.7,2l-3.8,0.8c-2.3-0.4-3.3-0.6-1-1.1c-5.5,0.7-4.5,0.3-9.2,1l0.2-0.4
		c-1.7,0-4.4,0.5-5.4,0.2c-3.8-0.8-18.6-0.1-28.2-0.8c1.9,1.2-4.5-0.5-4.9,0.4c-0.6-0.3-1.9-0.4-0.3-0.7c-4.9,0.3-7.4-0.4-10.8,0.3
		c-0.6-0.3,1.1-0.4,0.6-0.6c-0.4,0.1-1.6,0.2-2.1,0.1c-0.5-0.2,0.7-0.2,1.5-0.4c-5,0-5.5,0.9-5.9,1.7c-2.5-0.4-3.8-0.3-5.7,0.2
		c-0.9-0.3-2.4-0.5,0.8-0.6c-1.8,0-10.7-0.4-10.9,0.3c-0.6-0.2-2.5,0-2.9,0c-2,0-3,0-4.1-0.1c-0.6,0-1.2,0-2,0c-0.9,0-1.9,0-3.2,0
		l1.5,0.1c-0.6,0.3-1.1,0.4-1.9,0.4c0,0.7,0,1.5-0.1,2.4c0,0.5,0,1-0.1,1.5c0,0.3,0,0.6,0,0.8c0,0.2,0,0.5,0,0.7l-0.1-0.1
		c-0.6,7.2,0.3,3.1-0.4,10.1l0.5-0.4c1,0.7-0.6,6.3-0.2,10.3l0.3-1.5c0.4,2.2-1.4,6.3-1.5,8.5c-0.1,0.5-0.1-0.8-0.2-1.5
		c-0.6,5.9,0.6,0.8,0.8,5.1c-0.3,0.8-0.9-1-0.9,1.9c-0.3,1.5,1.1,8.6,0.5,12.6c0.3-0.9,0.5-1.8,0.7,0.3c0,1.1-0.2,4.3-0.3,7.4
		c1.5,0.1,3.2,0.2,4.7,0.1c0.4,0,0.7,0,1.1,0c0.2,0,0.5,0,0.7-0.1c0.4,0,0.9-0.1,1.2-0.2c0.4,0.1,0.5,0.1,0.6,0.2
		c2.4-0.2,7.7-0.4,9.2-0.8c2.2,1.7,14.8-0.8,14.8,0.7l7.3-0.1l-0.2,0.2c4.7,0.1,6.3-0.3,8-0.6c1.1,0.1,0.3,0.2,0.2,0.3
		c6.9,0.3,7.5,0.2,13.3-0.5l0.6,0.5c1.6-0.3,9.9,0.8,16.6,0.2c-0.1,0.1-0.2,0.2-0.7,0.2c7.6-0.6,18.1,1.4,20.9-0.4l5-0.4
		c-6.5-0.1,1-0.8-1.7-1.1c2.5-0.1,6.6,0.5,3.4,0.6l-0.5-0.1c-1.1,0.9,8,0.3,7.8,1c12.7,0,25.1,0.5,37,0.5l-1.4-0.7l4.1,0
		c1.1,0.2,1.5,0.6-1.5,0.5c1.6,0.4,5-0.3,5-0.5c5.8,0.3-2.3,0.9-0.5,0.9l2.4-0.1l-0.5-0.1c2-0.3,2.1-0.6,5.7-0.6
		c2.3,0.1,1.2,0.5,2,0.5c0,0.1,0.3,0.1,1.4,0l5.2,0.1l-2.1-0.6c2.3-0.3,4.9,0,2.5-0.6c3.5,1,19.5,0.4,21.7,0.7
		c3.2-0.4,6.4-0.4,10.4-0.4c-1-0.1-1.6-0.8,1.8-0.7c-1.3,1.3,6.3,0.6,9,1.5c-2.5-0.6,9.7-0.2,5.9-1.1c2.9,0.1,0.2,0.5,2.3,0.8
		c6.8-0.5,15,0.3,23.4,0.2c0.1-0.2-1.3-0.4,0.5-0.7l4.4,0.9c1.7-0.1,1.5-1,4.6-0.4c-0.4-0.1-1.1-0.4,0-0.4
		c16.5,0.9,33.6-0.7,50.3,0.9c-2.3-0.3-0.8-0.4,1-0.4c-1.1-0.1,0-0.4-0.2-0.7l7,0.7c1.3-0.7,7.5,0,8.2-0.7l-2.2,0.1
		c1.6-0.4,0.2-0.9-1.3-1.4h6.9V3.9h-43.2C495.5,3.9,495.7,3.9,495.8,3.8z M489.7,3.9H485C486.1,3.7,488,3.6,489.7,3.9z M484,3.8
		C484,3.8,484,3.8,484,3.8l-0.4,0L484,3.8z M444.6,1.5C444.6,1.5,444.5,1.5,444.6,1.5C442.5,1.4,443.2,1.4,444.6,1.5z M427.4,2.6
		c4.5-0.2,2,0.5,2.7,0.4c8.5,0.1,7.2-1.5,14.3-0.9c2.8,0.5,0.1,1.1,0.7,1.5c-3.7,0.2-5.7-0.3-8.2-0.3l3.1,0.3
		c-1.2,0.2-3.6,0.3-5,0.2c0.3,0.1,0.7,0.1,1.3,0.1h-17.5C420.6,3.3,423.6,2.9,427.4,2.6z M399.6,3.4c-0.1,0.1,0.3,0.3,0.6,0.4h-3.7
		C397.5,3.7,398.6,3.5,399.6,3.4z M375.1,2.5c0.4,0.1,6.7,0.7,8.2,1.1c0.3,0.1,0.4,0.2,0.5,0.2h-4.5l-0.1-0.8l-0.5,0.8h-4.4
		C374.2,3.3,374.5,2.7,375.1,2.5z M352.7,2.4l1,0.3l4-0.4c-1.1,0.4-3,0.9-5.1,1.5H346C347.9,3.2,350.2,2.6,352.7,2.4z M317.4,2.6
		c-0.1,0.1-0.2,0.1-0.3,0.2C317,2.7,316.6,2.6,317.4,2.6z M307.5,3c-0.3,0.2-0.1,0.5,0,0.9h-3.1L307.5,3z M241.4,3.1
		c0.6,0.1,0.1,0.3-0.7,0.6c0.3-0.1,0.7-0.1,0.9-0.2c0.7,0.1,1,0.2,1,0.3h-2.5c0.2-0.1,0.4-0.1,0.6-0.2c-0.4,0.1-0.8,0.1-1.2,0.2
		h-1.1c-0.8-0.2-1.5-0.3-2-0.4L241.4,3.1z M378.2,61.3l-0.8-0.1C379.2,61,378.7,61.1,378.2,61.3z"/>
	<path d="M477.1,2.7c0.6-0.6-1.5-0.4-3.5-0.2c0.2,0.4,1.9,0.3,3.8,0.2C477.3,2.7,477.2,2.7,477.1,2.7z"/>
	<path d="M479.6,2.7c0.2-0.2-0.7,0-1.7,0C478.5,2.7,479.1,2.7,479.6,2.7z"/>
	<path d="M454.2,1.5c0.9,0.1,0.6-0.5,1.1-0.4C456.2,0.6,449.3,1.7,454.2,1.5z"/>
	<polygon points="473.5,3.8 475.2,3.9 474.5,3.4 	"/>
	<path d="M460.3,3.5l3,0.1c0-0.1,0.3-0.1,0.8-0.2C462.2,3.4,460.2,3.3,460.3,3.5z"/>
	<path d="M466.5,3.4c-0.5,0-1.7,0-2.4,0.1C465.1,3.5,466,3.5,466.5,3.4z"/>
	<path d="M426.3,3.7c0.8-0.1,2-0.2,1.5-0.4l-3.3,0.1C424.1,3.7,425,3.8,426.3,3.7z"/>
	<polygon points="531.7,61.8 534.2,62 532.5,61.7 	"/>
	<path d="M536.5,61l0.6,0.6l1.5-0.6C538,61.1,536.9,61.2,536.5,61z"/>
</g>
</svg>
