<svg xmlns="http://www.w3.org/2000/svg" width="134.594" height="17.88" viewBox="0 0 134.594 17.88">
  <defs>
    <style>
      .cls-1 {
        fill: #fff;
        fill-rule: evenodd;
      }
    </style>
  </defs>
  <path id="TRACK_LIST" data-name="TRACK LIST" class="cls-1" d="M702.178,1162.71v-3.06H689.421v3.06h4.643v14.51h3.471v-14.51h4.643Zm16.232,14.51-3.969-7.58a4.74,4.74,0,0,0,3.245-4.61c0-2.94-2.147-5.38-5.767-5.38h-6.965v17.57h3.47v-7.01h2.5l3.47,7.01h4.019Zm-4.194-12.19a2.31,2.31,0,0,1-2.521,2.32h-3.271v-4.64H711.7A2.3,2.3,0,0,1,714.216,1165.03Zm21.73,12.19-6.491-17.57h-2.722l-6.466,17.57h3.62l1.074-3.11h6.316l1.049,3.11h3.62Zm-5.593-6h-4.418l2.246-6.39Zm20.012,0.59h-3.52a2.928,2.928,0,0,1-3,2.49,2.874,2.874,0,0,1-2.222-.91c-0.649-.74-0.874-1.6-0.874-4.96s0.225-4.22.874-4.96a3.067,3.067,0,0,1,5.193,1.58h3.545a6.241,6.241,0,0,0-6.516-5.55,6.484,6.484,0,0,0-4.768,1.85c-1.773,1.75-1.8,3.73-1.8,7.08s0.025,5.33,1.8,7.08a6.445,6.445,0,0,0,4.768,1.85A6.248,6.248,0,0,0,750.365,1171.81Zm17.256,5.41-6.317-10.59,5.892-6.98h-4.219l-6.266,7.65v-7.65H753.24v17.57h3.471v-5.28l2.3-2.72,4.568,8h4.045Zm19.55,0v-3.06h-8.064v-14.51h-3.47v17.57h11.534Zm6.246,0v-17.57h-3.47v17.57h3.47Zm15.7-5.19a4.781,4.781,0,0,0-1.373-3.7,5.662,5.662,0,0,0-3.4-1.38l-2.122-.32a2.908,2.908,0,0,1-1.622-.66,1.633,1.633,0,0,1-.5-1.26c0-1.21.874-2.22,2.721-2.22a4.913,4.913,0,0,1,3.645,1.21l2.2-2.15a7.651,7.651,0,0,0-5.742-2.05c-3.844,0-6.191,2.2-6.191,5.33a4.557,4.557,0,0,0,1.273,3.45,5.872,5.872,0,0,0,3.445,1.46l2.122,0.32a2.536,2.536,0,0,1,1.6.59,1.972,1.972,0,0,1,.55,1.46c0,1.4-1.1,2.19-3.171,2.19a5.838,5.838,0,0,1-4.269-1.48l-2.247,2.22c1.747,1.76,3.795,2.32,6.491,2.32C806.268,1177.36,809.114,1175.44,809.114,1172.03Zm14.874-9.32v-3.06H811.23v3.06h4.644v14.51h3.47v-14.51h4.644Z" transform="translate(-689.406 -1159.5)"/>
</svg>
