<svg xmlns="http://www.w3.org/2000/svg" width="27.97" height="28" viewBox="0 0 27.97 28">
  <defs>
    <style>
      .cls-1 {
        fill: #fff;
        fill-rule: evenodd;
      }
    </style>
  </defs>
  <path id="icn_facebook" class="cls-1" d="M1178.56,32h-24.9a1.543,1.543,0,0,0-1.54,1.545V58.453A1.543,1.543,0,0,0,1153.66,60h13.41V49.171h-3.64V44.933h3.64V41.814c0-3.616,2.21-5.585,5.43-5.585a30.1,30.1,0,0,1,3.26.166v3.779h-2.23c-1.75,0-2.09.834-2.09,2.058v2.7h4.2l-0.55,4.238h-3.65V60h7.12a1.543,1.543,0,0,0,1.54-1.545V33.546A1.543,1.543,0,0,0,1178.56,32Z" transform="translate(-1152.12 -32)"/>
</svg>
