<svg xmlns="http://www.w3.org/2000/svg" width="28" height="28" viewBox="0 0 28 28">
  <defs>
    <style>
      .cls-1 {
        fill: #fff;
        fill-rule: evenodd;
      }
    </style>
  </defs>
  <path id="icn_twitter" class="cls-1" d="M1138.5,32h-21a3.5,3.5,0,0,0-3.5,3.5v21a3.5,3.5,0,0,0,3.5,3.5h21a3.5,3.5,0,0,0,3.5-3.5v-21A3.5,3.5,0,0,0,1138.5,32Zm-3.54,10.432c0.01,0.154.01,0.309,0.01,0.464a10.212,10.212,0,0,1-15.72,8.6,7.341,7.341,0,0,0,.86.05,7.211,7.211,0,0,0,4.46-1.537,3.6,3.6,0,0,1-3.36-2.494,3.662,3.662,0,0,0,.68.065,3.6,3.6,0,0,0,.94-0.126,3.6,3.6,0,0,1-2.88-3.52V43.89a3.6,3.6,0,0,0,1.63.449,3.583,3.583,0,0,1-1.11-4.793,10.179,10.179,0,0,0,7.4,3.751,3.674,3.674,0,0,1-.09-0.819,3.591,3.591,0,0,1,6.21-2.456,7.326,7.326,0,0,0,2.28-.872,3.615,3.615,0,0,1-1.58,1.986,7.178,7.178,0,0,0,2.06-.565A7.309,7.309,0,0,1,1134.96,42.431Z" transform="translate(-1114 -32)"/>
</svg>
