<svg xmlns="http://www.w3.org/2000/svg" width="16" height="16" viewBox="0 0 16 16">
  <defs>
    <style>
      .cls-1 {
        fill-rule: evenodd;
      }
    </style>
  </defs>
  <path id="spotify" class="cls-1" d="M1291.5,41.5a8,8,0,1,0,8,8A8,8,0,0,0,1291.5,41.5Zm3.67,11.538a0.5,0.5,0,0,1-.69.166,9.188,9.188,0,0,0-7.02-.772,0.5,0.5,0,0,1-.23-0.972,10.154,10.154,0,0,1,7.77.892A0.5,0.5,0,0,1,1295.17,53.039Zm0.98-2.178a0.627,0.627,0,0,1-.86.205,10.5,10.5,0,0,0-7.97-.932,0.623,0.623,0,1,1-.36-1.193A11.658,11.658,0,0,1,1295.94,50,0.619,0.619,0,0,1,1296.15,50.86Zm0.08-2.268a13.3,13.3,0,0,0-9.29-.925,0.753,0.753,0,0,1-.94-0.5,0.762,0.762,0,0,1,.5-0.933c2.83-.858,7.53-0.692,10.5,1.07A0.75,0.75,0,0,1,1296.23,48.592Z" transform="translate(-1283.5 -41.5)"/>
</svg>
