<svg xmlns="http://www.w3.org/2000/svg" width="76" height="76" viewBox="0 0 76 76">
  <defs>
    <style>
      .cls-1 {
        fill-rule: evenodd;
      }
    </style>
  </defs>
  <path id="シェイプ_1" data-name="シェイプ 1" class="cls-1" d="M667,2412a38,38,0,1,1-38,38A38,38,0,0,1,667,2412Zm0,4a34,34,0,1,1-34,34A34,34,0,0,1,667,2416Zm12.688,40.8h0a2.73,2.73,0,0,1-3.806,0l-6.78-6.66a2.45,2.45,0,0,0-3.409,0l-6.78,6.66a2.73,2.73,0,0,1-3.806,0h0a2.612,2.612,0,0,1,0-3.74l8.4-8.25a5.58,5.58,0,0,1,7.771,0l8.4,8.25A2.612,2.612,0,0,1,679.688,2456.8Z" transform="translate(-629 -2412)"/>
</svg>
