<svg xmlns="http://www.w3.org/2000/svg" width="19" height="16" viewBox="0 0 19 16">
  <defs>
    <style>
      .cls-1 {
        fill-rule: evenodd;
      }
    </style>
  </defs>
  <path id="twitter" class="cls-1" d="M1190,43.891a7.563,7.563,0,0,1-2.24.636,4.04,4.04,0,0,0,1.71-2.234,7.581,7.581,0,0,1-2.47.98A3.839,3.839,0,0,0,1184.15,42a4.064,4.064,0,0,0-3.8,4.957,10.951,10.951,0,0,1-8.04-4.219,4.128,4.128,0,0,0,1.21,5.39,3.794,3.794,0,0,1-1.77-.505v0.052a4,4,0,0,0,3.13,3.959,3.813,3.813,0,0,1-1.03.142,3.711,3.711,0,0,1-.73-0.073,3.91,3.91,0,0,0,3.64,2.8,7.658,7.658,0,0,1-5.77,1.672,10.742,10.742,0,0,0,5.98,1.814c7.17,0,11.09-6.153,11.09-11.489,0-.175,0-0.349-0.01-0.522A8.1,8.1,0,0,0,1190,43.891Z" transform="translate(-1171 -42)"/>
</svg>
